<?xml version="1.0" encoding="UTF-8" standalone="no"?>
<!DOCTYPE svg PUBLIC "-//W3C//DTD SVG 1.0//EN" "http://www.w3.org/TR/2001/REC-SVG-20010904/DTD/svg10.dtd">
<!-- Fixed up by svgfix.xsl 1.1  -->
<!-- Generated by Microsoft Visio 11.0, SVG Export, v1.0 GIC_overview.svg Page-1 -->
<svg xmlns="http://www.w3.org/2000/svg" xmlns:ev="http://www.w3.org/2001/xml-events" xmlns:xlink="http://www.w3.org/1999/xlink" width="663.852" height="523.57" viewBox="0 0 497.889 392.677" xml:space="preserve" color-interpolation-filters="sRGB" class="st10">
	

	<style type="text/css"><![CDATA[
	
		.st1 {fill:none;stroke:none;stroke-linecap:round;stroke-linejoin:round;stroke-width:0.72px}
		.st2 {fill:#000000;font-family:Arial,Helvetica,sans-serif;font-size:1.00001em}
		.st3 {marker-end:url(#mrkr13-9);stroke:#4677bf;stroke-linecap:round;stroke-linejoin:round;stroke-width:2.16px}
		.st4 {fill:#4677bf;fill-opacity:1;stroke:#4677bf;stroke-opacity:1;stroke-width:0.46153846153846px}
		.st5 {marker-end:url(#mrkr13-21);stroke:#4677bf;stroke-linecap:round;stroke-linejoin:round;stroke-width:1.2px}
		.st6 {fill:#4677bf;fill-opacity:1;stroke:#4677bf;stroke-opacity:1;stroke-width:0.32258064516129px}
		.st7 {stroke:#4677bf;stroke-dasharray:2.16,4.32;stroke-linecap:round;stroke-linejoin:round;stroke-width:2.16px}
		.st8 {stroke:#4677bf;stroke-linecap:round;stroke-linejoin:round;stroke-width:1.2px}
		.st9 {fill:#ffffff;stroke:#000000;stroke-linecap:round;stroke-linejoin:round;stroke-width:1.2px}
		.st10 {fill:none;fill-rule:evenodd;font-size:12px;overflow:visible;stroke-linecap:square;stroke-miterlimit:3}
	
	]]></style>

	<defs id="Markers">
		<g id="lend13">
			<path d="M 3 1 L 0 0 L 3 -1 L 3 1 " style="stroke:none"/>
		</g>
		<marker id="mrkr13-9" class="st4" refX="-6.5" orient="auto" markerUnits="strokeWidth" overflow="visible">
			<use xlink:href="#lend13" transform="scale(-2.1666666666667,-2.1666666666667) "/>
		</marker>
		<marker id="mrkr13-21" class="st6" refX="-9.3" orient="auto" markerUnits="strokeWidth" overflow="visible">
			<use xlink:href="#lend13" transform="scale(-3.1,-3.1) "/>
		</marker>
	</defs>
	<g>
		
		<title>Page-1</title>
		
		
		<g id="shape4-1" transform="translate(14.7995,-370.217)">
			<title>Sheet.4</title>
			<desc>INT[n:16]</desc>
			
			
			<rect x="0" y="375.669" width="70.8661" height="17.0079" class="st1"/>
			<text x="4" y="387.77" class="st2">INT[n:16]</text>		</g>
		<g id="shape5-4" transform="translate(213.225,-363.131)">
			<title>Dynamic connector.5</title>
			<path d="M0 385.59 L42.65 385.59" class="st3"/>
		</g>
		<g id="shape14-10" transform="translate(354.957,-370.217)">
			<title>Sheet.14</title>
			<desc>nIRQ</desc>
			
			
			<rect x="0" y="375.669" width="42.5197" height="17.0079" class="st1"/>
			<text x="7.25" y="387.77" class="st2">nIRQ</text>		</g>
		<g id="shape22-13" transform="translate(91.3349,-320.611)">
			<title>Sheet.22</title>
			<desc>nIRQ0</desc>
			
			
			<rect x="0" y="378.504" width="56.6929" height="14.1732" class="st1"/>
			<text x="4" y="389.19" class="st2">nIRQ0</text>		</g>
		<g id="shape8-16" transform="translate(354.957,-363.131)">
			<title>Dynamic connector.8</title>
			<path d="M0 385.59 L45.53 385.59" class="st5"/>
		</g>
		<g id="shape26-22" transform="translate(312.437,-306.438)">
			<title>Sheet.26</title>
			<desc>private bus</desc>
			
			
			<rect x="0" y="375.669" width="141.732" height="17.0079" class="st1"/>
			<text x="41.53" y="387.77" class="st2">private bus</text>		</g>
		<g id="shape25-25" transform="translate(312.437,-341.871)">
			<title>Dynamic connector.25</title>
			<path d="M0 385.59 L0 428.11 L141.73 428.11 L141.73 385.59" class="st7"/>
		</g>
		<g id="shape29-28" transform="translate(14.7995,-363.131)">
			<title>Dynamic connector.29</title>
			<path d="M0 385.59 L99.35 385.59" class="st3"/>
		</g>
		<g id="shape30-33" transform="translate(85.6656,-320.611)">
			<title>Dynamic connector.30</title>
			<path d="M0 392.68 L155.91 392.68 L155.91 357.24 L173.09 357.24" class="st5"/>
		</g>
		<g id="shape9-38" transform="translate(354.957,-271.005)">
			<title>Sheet.9</title>
			<desc>nIRQ</desc>
			
			
			<rect x="0" y="375.669" width="42.5197" height="17.0079" class="st1"/>
			<text x="7.25" y="387.77" class="st2">nIRQ</text>		</g>
		<g id="shape12-41" transform="translate(354.957,-263.918)">
			<title>Dynamic connector.12</title>
			<path d="M0 385.59 L45.53 385.59" class="st5"/>
		</g>
		<g id="shape13-46" transform="translate(312.437,-207.225)">
			<title>Sheet.13</title>
			<desc>private bus</desc>
			
			
			<rect x="0" y="375.669" width="141.732" height="17.0079" class="st1"/>
			<text x="41.53" y="387.77" class="st2">private bus</text>		</g>
		<g id="shape15-49" transform="translate(312.437,-242.658)">
			<title>Dynamic connector.15</title>
			<path d="M0 385.59 L0 428.11 L141.73 428.11 L141.73 385.59" class="st7"/>
		</g>
		<g id="shape16-52" transform="translate(354.957,-171.792)">
			<title>Sheet.16</title>
			<desc>nIRQ</desc>
			
			
			<rect x="0" y="375.669" width="42.5197" height="17.0079" class="st1"/>
			<text x="7.25" y="387.77" class="st2">nIRQ</text>		</g>
		<g id="shape20-55" transform="translate(354.957,-164.706)">
			<title>Dynamic connector.20</title>
			<path d="M0 385.59 L45.53 385.59" class="st5"/>
		</g>
		<g id="shape21-60" transform="translate(312.437,-108.013)">
			<title>Sheet.21</title>
			<desc>private bus</desc>
			
			
			<rect x="0" y="375.669" width="141.732" height="17.0079" class="st1"/>
			<text x="41.53" y="387.77" class="st2">private bus</text>		</g>
		<g id="shape23-63" transform="translate(312.437,-143.446)">
			<title>Dynamic connector.23</title>
			<path d="M0 385.59 L0 428.11 L141.73 428.11 L141.73 385.59" class="st7"/>
		</g>
		<g id="shape31-66" transform="translate(354.957,-72.5795)">
			<title>Sheet.31</title>
			<desc>nIRQ</desc>
			
			
			<rect x="0" y="375.669" width="42.5197" height="17.0079" class="st1"/>
			<text x="7.25" y="387.77" class="st2">nIRQ</text>		</g>
		<g id="shape34-69" transform="translate(354.957,-65.4929)">
			<title>Dynamic connector.34</title>
			<path d="M0 385.59 L45.53 385.59" class="st5"/>
		</g>
		<g id="shape35-74" transform="translate(312.437,-8.8)">
			<title>Sheet.35</title>
			<desc>private bus</desc>
			
			
			<rect x="0" y="375.669" width="141.732" height="17.0079" class="st1"/>
			<text x="41.53" y="387.77" class="st2">private bus</text>		</g>
		<g id="shape36-77" transform="translate(312.437,-44.2331)">
			<title>Dynamic connector.36</title>
			<path d="M0 385.59 L0 428.11 L141.73 428.11 L141.73 385.59" class="st7"/>
		</g>
		<g id="shape37-80" transform="translate(213.225,-370.217)">
			<title>Dynamic connector.37</title>
			<path d="M0 392.68 L14.17 392.68 L14.17 491.89 L42.65 491.89" class="st3"/>
		</g>
		<g id="shape38-85" transform="translate(213.225,-370.217)">
			<title>Dynamic connector.38</title>
			<path d="M0 392.68 L14.17 392.68 L14.17 591.1 L42.65 591.1" class="st3"/>
		</g>
		<g id="shape39-90" transform="translate(213.225,-370.217)">
			<title>Dynamic connector.39</title>
			<path d="M0 392.68 L14.17 392.68 L14.17 690.31 L42.65 690.31" class="st3"/>
		</g>
		<g id="shape43-95" transform="translate(85.6656,-249.745)">
			<title>Dynamic connector.43</title>
			<path d="M0 385.59 L173.09 385.59" class="st5"/>
		</g>
		<g id="shape44-100" transform="translate(85.6656,-150.532)">
			<title>Dynamic connector.44</title>
			<path d="M0 385.59 L173.09 385.59" class="st5"/>
		</g>
		<g id="shape45-105" transform="translate(85.6656,-51.3197)">
			<title>Dynamic connector.45</title>
			<path d="M0 385.59 L173.09 385.59" class="st5"/>
		</g>
		<g id="shape46-110" transform="translate(91.3349,-256.831)">
			<title>Sheet.46</title>
			<desc>nIRQ1</desc>
			
			
			<rect x="0" y="378.504" width="56.6929" height="14.1732" class="st1"/>
			<text x="4" y="389.19" class="st2">nIRQ1</text>		</g>
		<g id="shape47-113" transform="translate(91.3349,-157.619)">
			<title>Sheet.47</title>
			<desc>nIRQ2</desc>
			
			
			<rect x="0" y="378.504" width="56.6929" height="14.1732" class="st1"/>
			<text x="4" y="389.19" class="st2">nIRQ2</text>		</g>
		<g id="shape48-116" transform="translate(91.3349,-58.4063)">
			<title>Sheet.48</title>
			<desc>nIRQ3</desc>
			
			
			<rect x="0" y="378.504" width="56.6929" height="14.1732" class="st1"/>
			<text x="4" y="389.19" class="st2">nIRQ3</text>		</g>
		<g id="shape28-119" transform="translate(78.579,-320.611)">
			<title>Dynamic connector.28</title>
			<path d="M7.09 392.68 L7.09 681.81" class="st8"/>
		</g>
		<g id="shape40-122" transform="translate(14.7995,-24.3906)">
			<title>Dynamic connector.40</title>
			<path d="M0 385.59 L70.87 385.59" class="st8"/>
		</g>
		<g id="shape41-125" transform="translate(14.7995,-31.4772)">
			<title>Sheet.41</title>
			<desc>nIRQ[3:0]</desc>
			
			
			<rect x="0" y="372.835" width="70.8661" height="19.8425" class="st1"/>
			<text x="4" y="386.36" class="st2">nIRQ[3:0]</text>		</g>
		<g id="shape24-128" transform="translate(191.965,-348.957)">
			<title>Dynamic connector.24</title>
			<path d="M0 392.68 L0 435.2 L120.83 435.2" class="st7"/>
		</g>
		<g id="shape27-131" transform="translate(177.792,-348.957)">
			<title>Dynamic connector.27</title>
			<path d="M0 392.68 L0 534.41 L134.65 534.41" class="st7"/>
		</g>
		<g id="shape42-134" transform="translate(163.618,-348.957)">
			<title>Dynamic connector.42</title>
			<path d="M0 392.68 L0 633.62 L148.82 633.62" class="st7"/>
		</g>
		<g id="shape49-137" transform="translate(149.445,-348.957)">
			<title>Dynamic connector.49</title>
			<path d="M0 392.68 L0 732.83 L162.99 732.83" class="st7"/>
		</g>
		<g id="shape6-140" transform="translate(269.918,-348.957)">
			<title>Sheet.6</title>
			<desc>CPU Interface</desc>
			
			
			<rect x="0" y="350.157" width="85.0394" height="42.5197" class="st9"/>
			<text x="4.84" y="375.02" class="st2">CPU Interface</text>		</g>
		<g id="shape7-143" transform="translate(411.65,-348.957)">
			<title>Sheet.7</title>
			<desc>CPU 0</desc>
			
			
			<rect x="0" y="350.157" width="85.0394" height="42.5197" class="st9"/>
			<text x="24.85" y="375.02" class="st2">CPU 0</text>		</g>
		<g id="shape10-146" transform="translate(269.918,-249.745)">
			<title>Sheet.10</title>
			<desc>CPU Interface</desc>
			
			
			<rect x="0" y="350.157" width="85.0394" height="42.5197" class="st9"/>
			<text x="4.84" y="375.02" class="st2">CPU Interface</text>		</g>
		<g id="shape11-149" transform="translate(411.65,-249.745)">
			<title>Sheet.11</title>
			<desc>CPU 1</desc>
			
			
			<rect x="0" y="350.157" width="85.0394" height="42.5197" class="st9"/>
			<text x="24.85" y="375.02" class="st2">CPU 1</text>		</g>
		<g id="shape17-152" transform="translate(269.918,-150.532)">
			<title>Sheet.17</title>
			<desc>CPU Interface</desc>
			
			
			<rect x="0" y="350.157" width="85.0394" height="42.5197" class="st9"/>
			<text x="4.84" y="375.02" class="st2">CPU Interface</text>		</g>
		<g id="shape19-155" transform="translate(411.65,-150.532)">
			<title>Sheet.19</title>
			<desc>CPU 2</desc>
			
			
			<rect x="0" y="350.157" width="85.0394" height="42.5197" class="st9"/>
			<text x="24.85" y="375.02" class="st2">CPU 2</text>		</g>
		<g id="shape32-158" transform="translate(269.918,-51.3197)">
			<title>Sheet.32</title>
			<desc>CPU Interface</desc>
			
			
			<rect x="0" y="350.157" width="85.0394" height="42.5197" class="st9"/>
			<text x="4.84" y="375.02" class="st2">CPU Interface</text>		</g>
		<g id="shape33-161" transform="translate(411.65,-51.3197)">
			<title>Sheet.33</title>
			<desc>CPU 3</desc>
			
			
			<rect x="0" y="350.157" width="85.0394" height="42.5197" class="st9"/>
			<text x="24.85" y="375.02" class="st2">CPU 3</text>		</g>
		<g id="shape50-164" transform="translate(128.185,-348.957)">
			<title>Sheet.50</title>
			<desc>Distributor</desc>
			
			
			<rect x="0" y="350.157" width="85.0394" height="42.5197" class="st9"/>
			<text x="15.18" y="375.02" class="st2">Distributor</text>		</g>
	</g>
</svg>
